<svg version="1.1" xmlns="http://www.w3.org/2000/svg" xmlns:xlink="http://www.w3.org/1999/xlink" width="140.07091" height="140.07091" viewBox="0,0,140.07091,140.07091"><defs><radialGradient cx="340" cy="180" r="70.03546" gradientUnits="userSpaceOnUse" id="color-1"><stop offset="0" stop-color="#ffffff"/><stop offset="1" stop-color="#ffffff" stop-opacity="0"/></radialGradient><radialGradient cx="340" cy="180" r="70.03545" gradientUnits="userSpaceOnUse" id="color-2"><stop offset="0" stop-color="#ffffff"/><stop offset="1" stop-color="#ffffff" stop-opacity="0"/></radialGradient><radialGradient cx="340" cy="180" r="70.03546" gradientUnits="userSpaceOnUse" id="color-3"><stop offset="0" stop-color="#ffffff"/><stop offset="1" stop-color="#ffffff" stop-opacity="0"/></radialGradient></defs><g transform="translate(-269.96454,-109.96454)"><g data-paper-data="{&quot;isPaintingLayer&quot;:true}" fill-rule="nonzero" stroke="none" stroke-width="0" stroke-linecap="butt" stroke-linejoin="miter" stroke-miterlimit="10" stroke-dasharray="" stroke-dashoffset="0" style="mix-blend-mode: normal"><path d="M356.54776,180c0,38.67951 -7.40868,70.03546 -16.54776,70.03546c-9.13907,0 -16.54776,-31.35594 -16.54776,-70.03546c0,-38.67951 7.40868,-70.03546 16.54776,-70.03546c9.13907,0 16.54776,31.35594 16.54776,70.03546z" fill="url(#color-1)"/><path d="M340,163.45225c38.67951,0 70.03545,7.40868 70.03545,16.54775c0,9.13908 -31.35594,16.54775 -70.03545,16.54776c-38.67951,0 -70.03546,-7.40868 -70.03546,-16.54776c0,-9.13908 31.35594,-16.54775 70.03546,-16.54775z" fill="url(#color-2)"/><path d="M351.70103,168.29897c27.35055,27.35055 44.28382,54.76127 37.82152,61.22357c-6.4623,6.4623 -33.87303,-10.47097 -61.22357,-37.82152c-27.35055,-27.35055 -44.28382,-54.76127 -37.82152,-61.22357c6.4623,-6.4623 33.87303,10.47097 61.22357,37.82152z" fill="url(#color-3)"/></g></g></svg>